<svg width="340" height="109" viewBox="0 0 340 109" fill="none" xmlns="http://www.w3.org/2000/svg">
<path d="M46.8943 30.7241V46.5336H0.0589141V30.7241H46.8943ZM10.7797 106.609V25.2402C10.7797 19.7399 11.8501 15.1782 13.991 11.5552C16.1648 7.9322 19.129 5.21495 22.8838 3.40345C26.6385 1.59196 30.9038 0.686209 35.6795 0.686209C38.9073 0.686209 41.8551 0.933233 44.5229 1.42728C47.2237 1.92133 49.2328 2.36596 50.5503 2.7612L46.7955 18.5706C45.9721 18.3071 44.9511 18.0601 43.7325 17.8296C42.5467 17.599 41.3281 17.4837 40.0765 17.4837C36.9805 17.4837 34.8232 18.2083 33.6045 19.6575C32.3859 21.0738 31.7766 23.0664 31.7766 25.6355V106.609H10.7797ZM78.6738 108.042C73.8321 108.042 69.5175 107.202 65.7298 105.522C61.9421 103.81 58.9449 101.29 56.7382 97.9636C54.5644 94.6041 53.4775 90.4212 53.4775 85.4149C53.4775 81.199 54.2515 77.6584 55.7995 74.7929C57.3475 71.9274 59.4554 69.6219 62.1233 67.8763C64.7911 66.1307 67.8212 64.8132 71.2137 63.9239C74.6391 63.0346 78.2291 62.4089 81.9839 62.0466C86.3973 61.5854 89.9544 61.1573 92.6552 60.762C95.356 60.3339 97.3157 59.7081 98.5344 58.8847C99.753 58.0613 100.362 56.8426 100.362 55.2287V54.9323C100.362 51.8034 99.3742 49.3825 97.398 47.6699C95.4548 45.9572 92.6882 45.1008 89.0981 45.1008C85.3104 45.1008 82.2968 45.9407 80.0571 47.6205C77.8174 49.2673 76.3353 51.3423 75.6107 53.8454L56.1453 52.2645C57.1334 47.6534 59.0767 43.6681 61.9751 40.3086C64.8734 36.9161 68.6117 34.3142 73.1899 32.5027C77.8009 30.6583 83.1366 29.736 89.1969 29.736C93.4128 29.736 97.4475 30.2301 101.301 31.2182C105.187 32.2063 108.629 33.7378 111.627 35.8128C114.657 37.8878 117.045 40.5556 118.79 43.8163C120.536 47.0441 121.409 50.9141 121.409 55.4264V106.609H101.449V96.0862H100.856C99.6377 98.4576 98.0074 100.549 95.9653 102.361C93.9233 104.139 91.4695 105.539 88.6041 106.56C85.7386 107.548 82.4285 108.042 78.6738 108.042ZM84.7011 93.5172C87.7971 93.5172 90.5308 92.9079 92.9022 91.6892C95.2737 90.4376 97.1346 88.7579 98.4849 86.65C99.8353 84.542 100.511 82.1542 100.511 79.4863V71.4334C99.8518 71.8616 98.9461 72.2568 97.7933 72.6191C96.6735 72.9485 95.4054 73.2614 93.9891 73.5578C92.5729 73.8213 91.1566 74.0683 89.7404 74.2989C88.3241 74.4965 87.0396 74.6776 85.8868 74.8423C83.4166 75.2046 81.2593 75.781 79.4148 76.5715C77.5704 77.3619 76.1377 78.4324 75.1166 79.7828C74.0956 81.1002 73.5851 82.747 73.5851 84.7232C73.5851 87.5887 74.6226 89.7789 76.6976 91.294C78.8055 92.7761 81.4733 93.5172 84.7011 93.5172ZM200.876 52.3633L181.608 53.549C181.279 51.9022 180.57 50.42 179.484 49.1026C178.397 47.7522 176.964 46.6818 175.185 45.8913C173.44 45.0679 171.348 44.6562 168.911 44.6562C165.65 44.6562 162.9 45.3478 160.66 46.7312C158.421 48.0816 157.301 49.8931 157.301 52.1657C157.301 53.9772 158.026 55.5087 159.475 56.7603C160.924 58.0119 163.411 59.0164 166.935 59.7739L180.669 62.5406C188.047 64.0557 193.547 66.493 197.17 69.8525C200.793 73.212 202.605 77.6254 202.605 83.0929C202.605 88.0662 201.139 92.4303 198.208 96.185C195.309 99.9398 191.324 102.871 186.252 104.979C181.213 107.054 175.399 108.092 168.812 108.092C158.767 108.092 150.763 106 144.802 101.817C138.873 97.6013 135.398 91.8704 134.377 84.6244L155.078 83.5375C155.704 86.6006 157.219 88.939 159.623 90.5529C162.027 92.1339 165.107 92.9243 168.862 92.9243C172.55 92.9243 175.515 92.2162 177.754 90.7999C180.027 89.3507 181.18 87.4898 181.213 85.2172C181.18 83.3069 180.373 81.7425 178.792 80.5238C177.211 79.2722 174.774 78.3171 171.48 77.6584L158.338 75.0399C150.928 73.5578 145.411 70.9888 141.788 67.3328C138.198 63.6769 136.403 59.0164 136.403 53.3514C136.403 48.4768 137.72 44.2774 140.355 40.7532C143.023 37.229 146.761 34.5118 151.57 32.6015C156.412 30.6912 162.077 29.736 168.565 29.736C178.15 29.736 185.692 31.7616 191.192 35.8128C196.726 39.8639 199.953 45.3808 200.876 52.3633ZM256.221 30.7241V46.5336H210.522V30.7241H256.221ZM220.897 12.5433H241.943V83.2905C241.943 85.2337 242.24 86.7488 242.832 87.8357C243.425 88.8896 244.249 89.6307 245.303 90.0589C246.39 90.4871 247.641 90.7011 249.057 90.7011C250.045 90.7011 251.034 90.6188 252.022 90.4541C253.01 90.2565 253.767 90.1083 254.294 90.0095L257.604 105.671C256.55 106 255.068 106.379 253.158 106.807C251.248 107.268 248.926 107.548 246.192 107.647C241.12 107.844 236.673 107.169 232.853 105.621C229.065 104.073 226.117 101.669 224.009 98.4082C221.901 95.1475 220.864 91.0305 220.897 86.0571V12.5433ZM290.977 62.7382V106.609H269.931V30.7241H289.989V44.1127H290.878C292.558 39.6993 295.374 36.208 299.326 33.639C303.279 31.037 308.071 29.736 313.703 29.736C318.973 29.736 323.568 30.8888 327.487 33.1943C331.406 35.4999 334.453 38.7935 336.627 43.0752C338.801 47.324 339.887 52.3962 339.887 58.2918V106.609H318.841V62.0466C318.874 57.4025 317.688 53.7795 315.284 51.1776C312.88 48.5427 309.57 47.2252 305.354 47.2252C302.521 47.2252 300.018 47.8345 297.844 49.0532C295.703 50.2718 294.024 52.0504 292.805 54.3889C291.619 56.6944 291.01 59.4775 290.977 62.7382Z" fill="white"/>
</svg>
